<svg width="214" height="39" viewBox="0 0 214 39" fill="none" xmlns="http://www.w3.org/2000/svg">
<path d="M35.984 38H28.181V14.693L18.134 29.942H17.93L7.985 14.846V38H0.284V2.3H8.75L18.134 17.396L27.518 2.3H35.984V38ZM69.2444 25.097C69.2444 25.862 69.1934 26.321 69.1424 27.035H50.1194C50.8844 30.554 53.3324 32.39 56.8004 32.39C59.4014 32.39 61.2884 31.574 63.4304 29.585L67.8674 33.512C65.3174 36.674 61.6454 38.612 56.6984 38.612C48.4874 38.612 42.4184 32.849 42.4184 24.485V24.383C42.4184 16.58 47.9774 10.154 55.9334 10.154C65.0624 10.154 69.2444 17.243 69.2444 24.995V25.097ZM61.6964 22.19C61.2374 18.722 59.1974 16.376 55.9334 16.376C52.7204 16.376 50.6294 18.671 50.0174 22.19H61.6964ZM102.511 38H94.7587V34.073C92.8717 36.623 90.2707 38.51 86.2417 38.51C79.8667 38.51 73.7977 33.512 73.7977 24.383V24.281C73.7977 15.152 79.7647 10.154 86.2417 10.154C90.3727 10.154 92.9227 12.041 94.7587 14.234V0.769999H102.511V38ZM94.8607 24.383V24.281C94.8607 19.742 91.8517 16.733 88.2307 16.733C84.6097 16.733 81.5497 19.691 81.5497 24.281V24.383C81.5497 28.922 84.6097 31.931 88.2307 31.931C91.8517 31.931 94.8607 28.922 94.8607 24.383ZM135.906 38H110.253V2.3H118.107V30.86H135.906V38ZM149.326 7.655H141.166V0.769999H149.326V7.655ZM149.122 38H141.37V10.664H149.122V38ZM181.444 38H173.692V22.751C173.692 19.079 171.958 17.192 169 17.192C166.042 17.192 164.155 19.079 164.155 22.751V38H156.403V10.664H164.155V14.54C165.94 12.245 168.235 10.154 172.162 10.154C178.027 10.154 181.444 14.03 181.444 20.303V38ZM213.678 25.097C213.678 25.862 213.627 26.321 213.576 27.035H194.553C195.318 30.554 197.766 32.39 201.234 32.39C203.835 32.39 205.722 31.574 207.864 29.585L212.301 33.512C209.751 36.674 206.079 38.612 201.132 38.612C192.921 38.612 186.852 32.849 186.852 24.485V24.383C186.852 16.58 192.411 10.154 200.367 10.154C209.496 10.154 213.678 17.243 213.678 24.995V25.097ZM206.13 22.19C205.671 18.722 203.631 16.376 200.367 16.376C197.154 16.376 195.063 18.671 194.451 22.19H206.13Z" fill="white"/>
</svg>
